<mxfile host="app.diagrams.net" modified="2022-05-04T09:34:58.937Z" agent="5.0 (Windows)" etag="ycxB32VeeUrzcr57YBVd" version="17.5.0" type="github">
  <diagram id="C5RBs43oDa-KdzZeNtuy" name="Page-1">
    <mxGraphModel dx="1298" dy="719" grid="1" gridSize="10" guides="1" tooltips="1" connect="1" arrows="1" fold="1" page="1" pageScale="1" pageWidth="827" pageHeight="1169" math="0" shadow="0">
      <root>
        <mxCell id="WIyWlLk6GJQsqaUBKTNV-0" />
        <mxCell id="WIyWlLk6GJQsqaUBKTNV-1" parent="WIyWlLk6GJQsqaUBKTNV-0" />
        <mxCell id="oxz5jF2hxXYDcB3GLkzk-70" value="" style="rounded=0;whiteSpace=wrap;html=1;shadow=0;glass=0;sketch=0;strokeColor=#219EBC;strokeWidth=3;fillColor=none;" vertex="1" parent="WIyWlLk6GJQsqaUBKTNV-1">
          <mxGeometry x="845" y="110" width="355" height="360" as="geometry" />
        </mxCell>
        <mxCell id="oxz5jF2hxXYDcB3GLkzk-30" value="" style="rounded=0;whiteSpace=wrap;html=1;shadow=0;glass=0;sketch=0;strokeColor=#FEB705;strokeWidth=3;fillColor=none;" vertex="1" parent="WIyWlLk6GJQsqaUBKTNV-1">
          <mxGeometry x="470" y="110" width="360" height="360" as="geometry" />
        </mxCell>
        <mxCell id="oxz5jF2hxXYDcB3GLkzk-2" value="" style="rounded=0;whiteSpace=wrap;html=1;strokeColor=#90C9E7;strokeWidth=3;fillColor=none;glass=0;shadow=0;sketch=0;" vertex="1" parent="WIyWlLk6GJQsqaUBKTNV-1">
          <mxGeometry x="60" y="110" width="390" height="360" as="geometry" />
        </mxCell>
        <mxCell id="oxz5jF2hxXYDcB3GLkzk-22" style="edgeStyle=orthogonalEdgeStyle;rounded=0;orthogonalLoop=1;jettySize=auto;html=1;exitX=0.5;exitY=1;exitDx=0;exitDy=0;entryX=0.5;entryY=0;entryDx=0;entryDy=0;endArrow=classic;endFill=1;" edge="1" parent="WIyWlLk6GJQsqaUBKTNV-1" source="oxz5jF2hxXYDcB3GLkzk-0" target="oxz5jF2hxXYDcB3GLkzk-4">
          <mxGeometry relative="1" as="geometry" />
        </mxCell>
        <mxCell id="oxz5jF2hxXYDcB3GLkzk-0" value="&lt;div align=&quot;center&quot;&gt;用户需求获取&lt;br&gt;&lt;/div&gt;" style="rounded=1;whiteSpace=wrap;html=1;" vertex="1" parent="WIyWlLk6GJQsqaUBKTNV-1">
          <mxGeometry x="280" y="200" width="120" height="40" as="geometry" />
        </mxCell>
        <mxCell id="oxz5jF2hxXYDcB3GLkzk-27" style="edgeStyle=orthogonalEdgeStyle;rounded=0;orthogonalLoop=1;jettySize=auto;html=1;exitX=0.5;exitY=1;exitDx=0;exitDy=0;entryX=0.5;entryY=0;entryDx=0;entryDy=0;endArrow=classic;endFill=1;" edge="1" parent="WIyWlLk6GJQsqaUBKTNV-1" source="oxz5jF2hxXYDcB3GLkzk-4" target="oxz5jF2hxXYDcB3GLkzk-5">
          <mxGeometry relative="1" as="geometry" />
        </mxCell>
        <mxCell id="oxz5jF2hxXYDcB3GLkzk-35" style="edgeStyle=orthogonalEdgeStyle;rounded=0;orthogonalLoop=1;jettySize=auto;html=1;entryX=0;entryY=0.25;entryDx=0;entryDy=0;endArrow=classic;endFill=1;dashed=1;" edge="1" parent="WIyWlLk6GJQsqaUBKTNV-1" source="oxz5jF2hxXYDcB3GLkzk-4" target="oxz5jF2hxXYDcB3GLkzk-34">
          <mxGeometry relative="1" as="geometry">
            <Array as="points">
              <mxPoint x="430" y="330" />
              <mxPoint x="430" y="235" />
            </Array>
          </mxGeometry>
        </mxCell>
        <mxCell id="oxz5jF2hxXYDcB3GLkzk-36" value="Input" style="edgeLabel;html=1;align=center;verticalAlign=middle;resizable=0;points=[];" vertex="1" connectable="0" parent="oxz5jF2hxXYDcB3GLkzk-35">
          <mxGeometry x="0.1856" relative="1" as="geometry">
            <mxPoint y="33" as="offset" />
          </mxGeometry>
        </mxCell>
        <mxCell id="oxz5jF2hxXYDcB3GLkzk-4" value="需求筛选合并" style="rounded=1;whiteSpace=wrap;html=1;" vertex="1" parent="WIyWlLk6GJQsqaUBKTNV-1">
          <mxGeometry x="280" y="310" width="120" height="40" as="geometry" />
        </mxCell>
        <mxCell id="oxz5jF2hxXYDcB3GLkzk-38" style="edgeStyle=orthogonalEdgeStyle;rounded=0;orthogonalLoop=1;jettySize=auto;html=1;endArrow=classic;endFill=1;dashed=1;entryX=0;entryY=0.75;entryDx=0;entryDy=0;" edge="1" parent="WIyWlLk6GJQsqaUBKTNV-1" source="oxz5jF2hxXYDcB3GLkzk-5" target="oxz5jF2hxXYDcB3GLkzk-37">
          <mxGeometry relative="1" as="geometry">
            <Array as="points">
              <mxPoint x="430" y="420" />
              <mxPoint x="430" y="345" />
            </Array>
          </mxGeometry>
        </mxCell>
        <mxCell id="oxz5jF2hxXYDcB3GLkzk-39" value="Input" style="edgeLabel;html=1;align=center;verticalAlign=middle;resizable=0;points=[];" vertex="1" connectable="0" parent="oxz5jF2hxXYDcB3GLkzk-38">
          <mxGeometry x="-0.0753" y="1" relative="1" as="geometry">
            <mxPoint as="offset" />
          </mxGeometry>
        </mxCell>
        <mxCell id="oxz5jF2hxXYDcB3GLkzk-5" value="需求权重" style="rounded=1;whiteSpace=wrap;html=1;" vertex="1" parent="WIyWlLk6GJQsqaUBKTNV-1">
          <mxGeometry x="280" y="400" width="120" height="40" as="geometry" />
        </mxCell>
        <mxCell id="oxz5jF2hxXYDcB3GLkzk-10" value="用户需求获取" style="rounded=1;whiteSpace=wrap;html=1;strokeColor=none;strokeWidth=2;fillColor=#90C9E7;glass=0;shadow=0;sketch=0;fontColor=#333333;" vertex="1" parent="WIyWlLk6GJQsqaUBKTNV-1">
          <mxGeometry x="60" y="70" width="390" height="30" as="geometry" />
        </mxCell>
        <mxCell id="oxz5jF2hxXYDcB3GLkzk-16" style="edgeStyle=orthogonalEdgeStyle;rounded=0;orthogonalLoop=1;jettySize=auto;html=1;entryX=0;entryY=0.5;entryDx=0;entryDy=0;" edge="1" parent="WIyWlLk6GJQsqaUBKTNV-1" source="oxz5jF2hxXYDcB3GLkzk-11" target="oxz5jF2hxXYDcB3GLkzk-0">
          <mxGeometry relative="1" as="geometry" />
        </mxCell>
        <mxCell id="oxz5jF2hxXYDcB3GLkzk-11" value="问卷调查" style="rounded=1;whiteSpace=wrap;html=1;" vertex="1" parent="WIyWlLk6GJQsqaUBKTNV-1">
          <mxGeometry x="100" y="150" width="120" height="20" as="geometry" />
        </mxCell>
        <mxCell id="oxz5jF2hxXYDcB3GLkzk-21" style="edgeStyle=orthogonalEdgeStyle;rounded=0;orthogonalLoop=1;jettySize=auto;html=1;endArrow=none;endFill=0;" edge="1" parent="WIyWlLk6GJQsqaUBKTNV-1" source="oxz5jF2hxXYDcB3GLkzk-12">
          <mxGeometry relative="1" as="geometry">
            <mxPoint x="250" y="190" as="targetPoint" />
          </mxGeometry>
        </mxCell>
        <mxCell id="oxz5jF2hxXYDcB3GLkzk-12" value="用户访谈" style="rounded=1;whiteSpace=wrap;html=1;" vertex="1" parent="WIyWlLk6GJQsqaUBKTNV-1">
          <mxGeometry x="100" y="180" width="120" height="20" as="geometry" />
        </mxCell>
        <mxCell id="oxz5jF2hxXYDcB3GLkzk-20" style="edgeStyle=orthogonalEdgeStyle;rounded=0;orthogonalLoop=1;jettySize=auto;html=1;endArrow=none;endFill=0;" edge="1" parent="WIyWlLk6GJQsqaUBKTNV-1" source="oxz5jF2hxXYDcB3GLkzk-13">
          <mxGeometry relative="1" as="geometry">
            <mxPoint x="250" y="220" as="targetPoint" />
          </mxGeometry>
        </mxCell>
        <mxCell id="oxz5jF2hxXYDcB3GLkzk-13" value="田野观察" style="rounded=1;whiteSpace=wrap;html=1;" vertex="1" parent="WIyWlLk6GJQsqaUBKTNV-1">
          <mxGeometry x="100" y="210" width="120" height="20" as="geometry" />
        </mxCell>
        <mxCell id="oxz5jF2hxXYDcB3GLkzk-19" style="edgeStyle=orthogonalEdgeStyle;rounded=0;orthogonalLoop=1;jettySize=auto;html=1;exitX=1;exitY=0.5;exitDx=0;exitDy=0;endArrow=none;endFill=0;" edge="1" parent="WIyWlLk6GJQsqaUBKTNV-1" source="oxz5jF2hxXYDcB3GLkzk-14">
          <mxGeometry relative="1" as="geometry">
            <mxPoint x="250" y="249.80952380952374" as="targetPoint" />
          </mxGeometry>
        </mxCell>
        <mxCell id="oxz5jF2hxXYDcB3GLkzk-14" value="专家咨询" style="rounded=1;whiteSpace=wrap;html=1;" vertex="1" parent="WIyWlLk6GJQsqaUBKTNV-1">
          <mxGeometry x="100" y="240" width="120" height="20" as="geometry" />
        </mxCell>
        <mxCell id="oxz5jF2hxXYDcB3GLkzk-18" style="edgeStyle=orthogonalEdgeStyle;rounded=0;orthogonalLoop=1;jettySize=auto;html=1;entryX=0;entryY=0.5;entryDx=0;entryDy=0;" edge="1" parent="WIyWlLk6GJQsqaUBKTNV-1" source="oxz5jF2hxXYDcB3GLkzk-15" target="oxz5jF2hxXYDcB3GLkzk-0">
          <mxGeometry relative="1" as="geometry" />
        </mxCell>
        <mxCell id="oxz5jF2hxXYDcB3GLkzk-15" value="桌面研究" style="rounded=1;whiteSpace=wrap;html=1;" vertex="1" parent="WIyWlLk6GJQsqaUBKTNV-1">
          <mxGeometry x="100" y="270" width="120" height="20" as="geometry" />
        </mxCell>
        <mxCell id="oxz5jF2hxXYDcB3GLkzk-25" style="edgeStyle=orthogonalEdgeStyle;rounded=0;orthogonalLoop=1;jettySize=auto;html=1;entryX=0;entryY=0.5;entryDx=0;entryDy=0;endArrow=classic;endFill=1;" edge="1" parent="WIyWlLk6GJQsqaUBKTNV-1" source="oxz5jF2hxXYDcB3GLkzk-23" target="oxz5jF2hxXYDcB3GLkzk-4">
          <mxGeometry relative="1" as="geometry" />
        </mxCell>
        <mxCell id="oxz5jF2hxXYDcB3GLkzk-23" value="KJ法" style="rounded=1;whiteSpace=wrap;html=1;" vertex="1" parent="WIyWlLk6GJQsqaUBKTNV-1">
          <mxGeometry x="100" y="320" width="120" height="20" as="geometry" />
        </mxCell>
        <mxCell id="oxz5jF2hxXYDcB3GLkzk-29" style="edgeStyle=orthogonalEdgeStyle;rounded=0;orthogonalLoop=1;jettySize=auto;html=1;entryX=0;entryY=0.5;entryDx=0;entryDy=0;endArrow=classic;endFill=1;" edge="1" parent="WIyWlLk6GJQsqaUBKTNV-1" source="oxz5jF2hxXYDcB3GLkzk-28" target="oxz5jF2hxXYDcB3GLkzk-5">
          <mxGeometry relative="1" as="geometry" />
        </mxCell>
        <mxCell id="oxz5jF2hxXYDcB3GLkzk-28" value="AHP" style="rounded=1;whiteSpace=wrap;html=1;" vertex="1" parent="WIyWlLk6GJQsqaUBKTNV-1">
          <mxGeometry x="100" y="410" width="120" height="20" as="geometry" />
        </mxCell>
        <mxCell id="oxz5jF2hxXYDcB3GLkzk-31" value="建立质量屋" style="rounded=1;whiteSpace=wrap;html=1;strokeColor=none;strokeWidth=2;fillColor=#FEB705;glass=0;shadow=0;sketch=0;fontColor=#333333;" vertex="1" parent="WIyWlLk6GJQsqaUBKTNV-1">
          <mxGeometry x="470" y="70" width="360" height="30" as="geometry" />
        </mxCell>
        <mxCell id="oxz5jF2hxXYDcB3GLkzk-68" style="edgeStyle=orthogonalEdgeStyle;rounded=0;orthogonalLoop=1;jettySize=auto;html=1;exitX=1;exitY=0.5;exitDx=0;exitDy=0;entryX=0;entryY=0.5;entryDx=0;entryDy=0;endArrow=classic;endFill=1;dashed=1;" edge="1" parent="WIyWlLk6GJQsqaUBKTNV-1" source="oxz5jF2hxXYDcB3GLkzk-33" target="oxz5jF2hxXYDcB3GLkzk-52">
          <mxGeometry relative="1" as="geometry" />
        </mxCell>
        <mxCell id="oxz5jF2hxXYDcB3GLkzk-69" value="&lt;div&gt;Input&lt;br&gt;&lt;/div&gt;&lt;div&gt;评价项目&lt;/div&gt;" style="edgeLabel;html=1;align=center;verticalAlign=middle;resizable=0;points=[];" vertex="1" connectable="0" parent="oxz5jF2hxXYDcB3GLkzk-68">
          <mxGeometry x="0.1219" y="-3" relative="1" as="geometry">
            <mxPoint as="offset" />
          </mxGeometry>
        </mxCell>
        <mxCell id="oxz5jF2hxXYDcB3GLkzk-33" value="外观设计要素" style="rounded=0;whiteSpace=wrap;html=1;shadow=0;glass=0;sketch=0;strokeColor=#000000;strokeWidth=1;fillColor=none;" vertex="1" parent="WIyWlLk6GJQsqaUBKTNV-1">
          <mxGeometry x="495" y="140" width="305" height="40" as="geometry" />
        </mxCell>
        <mxCell id="oxz5jF2hxXYDcB3GLkzk-34" value="用户需求" style="rounded=0;whiteSpace=wrap;html=1;shadow=0;glass=0;sketch=0;strokeColor=#000000;strokeWidth=1;fillColor=none;" vertex="1" parent="WIyWlLk6GJQsqaUBKTNV-1">
          <mxGeometry x="495" y="180" width="25" height="220" as="geometry" />
        </mxCell>
        <mxCell id="oxz5jF2hxXYDcB3GLkzk-37" value="需求权重" style="rounded=0;whiteSpace=wrap;html=1;shadow=0;glass=0;sketch=0;strokeColor=#000000;strokeWidth=1;fillColor=none;" vertex="1" parent="WIyWlLk6GJQsqaUBKTNV-1">
          <mxGeometry x="520" y="180" width="25" height="220" as="geometry" />
        </mxCell>
        <mxCell id="oxz5jF2hxXYDcB3GLkzk-40" value="需求-要素相关性分析" style="rounded=0;whiteSpace=wrap;html=1;shadow=0;glass=0;sketch=0;strokeColor=#000000;strokeWidth=1;fillColor=none;" vertex="1" parent="WIyWlLk6GJQsqaUBKTNV-1">
          <mxGeometry x="545" y="180" width="255" height="220" as="geometry" />
        </mxCell>
        <mxCell id="oxz5jF2hxXYDcB3GLkzk-60" value="Output" style="edgeStyle=orthogonalEdgeStyle;rounded=0;orthogonalLoop=1;jettySize=auto;html=1;dashed=1;endArrow=classic;endFill=1;" edge="1" parent="WIyWlLk6GJQsqaUBKTNV-1" source="oxz5jF2hxXYDcB3GLkzk-41" target="oxz5jF2hxXYDcB3GLkzk-54">
          <mxGeometry relative="1" as="geometry" />
        </mxCell>
        <mxCell id="oxz5jF2hxXYDcB3GLkzk-41" value="外观设计要素权重得分" style="rounded=0;whiteSpace=wrap;html=1;shadow=0;glass=0;sketch=0;strokeColor=#000000;strokeWidth=1;fillColor=none;" vertex="1" parent="WIyWlLk6GJQsqaUBKTNV-1">
          <mxGeometry x="495" y="400" width="305" height="40" as="geometry" />
        </mxCell>
        <mxCell id="oxz5jF2hxXYDcB3GLkzk-42" value="眼动实验" style="rounded=1;whiteSpace=wrap;html=1;strokeColor=none;strokeWidth=2;fillColor=#219EBC;glass=0;shadow=0;sketch=0;fontColor=#333333;" vertex="1" parent="WIyWlLk6GJQsqaUBKTNV-1">
          <mxGeometry x="845" y="70" width="355" height="30" as="geometry" />
        </mxCell>
        <mxCell id="oxz5jF2hxXYDcB3GLkzk-66" style="edgeStyle=orthogonalEdgeStyle;rounded=0;orthogonalLoop=1;jettySize=auto;html=1;exitX=0.5;exitY=1;exitDx=0;exitDy=0;entryX=0.5;entryY=0;entryDx=0;entryDy=0;endArrow=classic;endFill=1;" edge="1" parent="WIyWlLk6GJQsqaUBKTNV-1" source="oxz5jF2hxXYDcB3GLkzk-44" target="oxz5jF2hxXYDcB3GLkzk-52">
          <mxGeometry relative="1" as="geometry" />
        </mxCell>
        <mxCell id="oxz5jF2hxXYDcB3GLkzk-44" value="观察方案" style="rounded=1;whiteSpace=wrap;html=1;" vertex="1" parent="WIyWlLk6GJQsqaUBKTNV-1">
          <mxGeometry x="962.5" y="150" width="120" height="40" as="geometry" />
        </mxCell>
        <mxCell id="oxz5jF2hxXYDcB3GLkzk-58" style="edgeStyle=orthogonalEdgeStyle;rounded=0;orthogonalLoop=1;jettySize=auto;html=1;entryX=1;entryY=0.5;entryDx=0;entryDy=0;dashed=1;endArrow=classic;endFill=1;" edge="1" parent="WIyWlLk6GJQsqaUBKTNV-1" source="oxz5jF2hxXYDcB3GLkzk-51" target="oxz5jF2hxXYDcB3GLkzk-54">
          <mxGeometry relative="1" as="geometry">
            <Array as="points">
              <mxPoint x="1023" y="560" />
            </Array>
          </mxGeometry>
        </mxCell>
        <mxCell id="oxz5jF2hxXYDcB3GLkzk-73" value="Output" style="edgeLabel;html=1;align=center;verticalAlign=middle;resizable=0;points=[];" vertex="1" connectable="0" parent="oxz5jF2hxXYDcB3GLkzk-58">
          <mxGeometry x="-0.2977" y="3" relative="1" as="geometry">
            <mxPoint as="offset" />
          </mxGeometry>
        </mxCell>
        <mxCell id="oxz5jF2hxXYDcB3GLkzk-51" value="计算眼动权重" style="rounded=1;whiteSpace=wrap;html=1;" vertex="1" parent="WIyWlLk6GJQsqaUBKTNV-1">
          <mxGeometry x="962.5" y="330" width="120" height="40" as="geometry" />
        </mxCell>
        <mxCell id="oxz5jF2hxXYDcB3GLkzk-65" style="edgeStyle=orthogonalEdgeStyle;rounded=0;orthogonalLoop=1;jettySize=auto;html=1;entryX=1;entryY=0.5;entryDx=0;entryDy=0;dashed=1;endArrow=classic;endFill=1;" edge="1" parent="WIyWlLk6GJQsqaUBKTNV-1" source="oxz5jF2hxXYDcB3GLkzk-52" target="oxz5jF2hxXYDcB3GLkzk-53">
          <mxGeometry relative="1" as="geometry">
            <Array as="points">
              <mxPoint x="1150" y="260" />
              <mxPoint x="1150" y="670" />
            </Array>
          </mxGeometry>
        </mxCell>
        <mxCell id="oxz5jF2hxXYDcB3GLkzk-72" value="&lt;div&gt;Output&lt;/div&gt;&lt;div&gt;用户评价数据&lt;/div&gt;" style="edgeLabel;html=1;align=center;verticalAlign=middle;resizable=0;points=[];" vertex="1" connectable="0" parent="oxz5jF2hxXYDcB3GLkzk-65">
          <mxGeometry x="-0.1929" y="5" relative="1" as="geometry">
            <mxPoint x="-1" as="offset" />
          </mxGeometry>
        </mxCell>
        <mxCell id="oxz5jF2hxXYDcB3GLkzk-67" style="edgeStyle=orthogonalEdgeStyle;rounded=0;orthogonalLoop=1;jettySize=auto;html=1;exitX=0.5;exitY=1;exitDx=0;exitDy=0;entryX=0.5;entryY=0;entryDx=0;entryDy=0;endArrow=classic;endFill=1;" edge="1" parent="WIyWlLk6GJQsqaUBKTNV-1" source="oxz5jF2hxXYDcB3GLkzk-52" target="oxz5jF2hxXYDcB3GLkzk-51">
          <mxGeometry relative="1" as="geometry" />
        </mxCell>
        <mxCell id="oxz5jF2hxXYDcB3GLkzk-52" value="填写模糊评价问卷" style="rounded=1;whiteSpace=wrap;html=1;" vertex="1" parent="WIyWlLk6GJQsqaUBKTNV-1">
          <mxGeometry x="962.5" y="240" width="120" height="40" as="geometry" />
        </mxCell>
        <mxCell id="oxz5jF2hxXYDcB3GLkzk-53" value="选择最优方案" style="rounded=1;whiteSpace=wrap;html=1;strokeColor=none;strokeWidth=2;fillColor=#FA8600;glass=0;shadow=0;sketch=0;fontColor=#ffffff;" vertex="1" parent="WIyWlLk6GJQsqaUBKTNV-1">
          <mxGeometry x="512.5" y="640" width="270" height="60" as="geometry" />
        </mxCell>
        <mxCell id="oxz5jF2hxXYDcB3GLkzk-64" style="edgeStyle=orthogonalEdgeStyle;rounded=0;orthogonalLoop=1;jettySize=auto;html=1;entryX=0.5;entryY=0;entryDx=0;entryDy=0;endArrow=classic;endFill=1;" edge="1" parent="WIyWlLk6GJQsqaUBKTNV-1" source="oxz5jF2hxXYDcB3GLkzk-54" target="oxz5jF2hxXYDcB3GLkzk-53">
          <mxGeometry relative="1" as="geometry" />
        </mxCell>
        <mxCell id="oxz5jF2hxXYDcB3GLkzk-54" value="获得各要素评价权重" style="rounded=1;whiteSpace=wrap;html=1;strokeColor=none;strokeWidth=2;fillColor=#647687;glass=0;shadow=0;sketch=0;fontColor=#ffffff;" vertex="1" parent="WIyWlLk6GJQsqaUBKTNV-1">
          <mxGeometry x="512.5" y="530" width="270" height="60" as="geometry" />
        </mxCell>
        <mxCell id="oxz5jF2hxXYDcB3GLkzk-63" style="edgeStyle=orthogonalEdgeStyle;rounded=0;orthogonalLoop=1;jettySize=auto;html=1;entryX=0;entryY=0.5;entryDx=0;entryDy=0;endArrow=classic;endFill=1;" edge="1" parent="WIyWlLk6GJQsqaUBKTNV-1" source="oxz5jF2hxXYDcB3GLkzk-61" target="oxz5jF2hxXYDcB3GLkzk-53">
          <mxGeometry relative="1" as="geometry" />
        </mxCell>
        <mxCell id="oxz5jF2hxXYDcB3GLkzk-61" value="模糊Topsis法" style="rounded=1;whiteSpace=wrap;html=1;" vertex="1" parent="WIyWlLk6GJQsqaUBKTNV-1">
          <mxGeometry x="332.5" y="660" width="120" height="20" as="geometry" />
        </mxCell>
      </root>
    </mxGraphModel>
  </diagram>
</mxfile>
